<?xml version="1.0" encoding="iso-8859-1"?>
<!-- Generator: Adobe Illustrator 19.0.0, SVG Export Plug-In . SVG Version: 6.00 Build 0)  -->
<svg version="1.1" id="Capa_1" xmlns="http://www.w3.org/2000/svg" xmlns:xlink="http://www.w3.org/1999/xlink" x="0px" y="0px"
	 viewBox="0 0 512 512" style="enable-background:new 0 0 512 512;" xml:space="preserve">
<g>
	<g>
		<rect x="187.733" y="51.2" width="17.067" height="17.067"/>
	</g>
</g>
<g>
	<g>
		<rect x="119.467" y="51.2" width="17.067" height="17.067"/>
	</g>
</g>
<g>
	<g>
		<rect x="51.2" y="51.2" width="17.067" height="17.067"/>
	</g>
</g>
<g>
	<g>
		<path d="M473.6,0H38.4C17.229,0,0,17.229,0,38.4v64h512v-64C512,17.229,494.771,0,473.6,0z M85.333,76.8
			c0,4.71-3.823,8.533-8.533,8.533H42.667c-4.71,0-8.533-3.823-8.533-8.533V42.667c0-4.71,3.823-8.533,8.533-8.533H76.8
			c4.71,0,8.533,3.823,8.533,8.533V76.8z M153.6,76.8c0,4.71-3.823,8.533-8.533,8.533h-34.133c-4.71,0-8.533-3.823-8.533-8.533
			V42.667c0-4.71,3.823-8.533,8.533-8.533h34.133c4.71,0,8.533,3.823,8.533,8.533V76.8z M221.867,76.8
			c0,4.71-3.823,8.533-8.533,8.533H179.2c-4.71,0-8.533-3.823-8.533-8.533V42.667c0-4.71,3.823-8.533,8.533-8.533h34.133
			c4.71,0,8.533,3.823,8.533,8.533V76.8z"/>
	</g>
</g>
<g>
	<g>
		<path d="M59.733,170.667v145.067h392.533V170.667H59.733z M304.7,270.566c-1.664,1.664-3.849,2.5-6.033,2.5
			c-2.185,0-4.369-0.836-6.033-2.5l-28.1-28.1l-22.067,22.067l11.034,11.034c3.337,3.336,3.337,8.73,0,12.066
			c-1.664,1.664-3.849,2.5-6.033,2.5c-2.185,0-4.369-0.836-6.033-2.5l-28.1-28.1l-28.1,28.1c-1.664,1.664-3.849,2.5-6.033,2.5
			c-2.185,0-4.369-0.836-6.033-2.5c-3.337-3.337-3.337-8.73,0-12.066l34.133-34.133c3.328-3.337,8.738-3.337,12.066,0l11.034,11.034
			l28.1-28.1c3.328-3.337,8.738-3.337,12.066,0L304.7,258.5C308.036,261.837,308.036,267.23,304.7,270.566z M358.4,221.67
			c0,9.515-7.74,17.254-17.263,17.254h-16.674c-9.515,0-17.263-7.74-17.263-17.254v-16.683h0c0-9.515,7.74-17.254,17.263-17.254
			h16.674c9.515,0,17.263,7.74,17.263,17.254V221.67z"/>
	</g>
</g>
<g>
	<g>
		<path d="M324.463,204.809l-0.196,16.879l16.87,0.188c0.111-0.008,0.196-0.102,0.196-0.196v-16.683L324.463,204.809z"/>
	</g>
</g>
<g>
	<g>
		<path d="M0,119.467V473.6C0,494.771,17.229,512,38.4,512h435.2c21.171,0,38.4-17.229,38.4-38.4V119.467H0z M51.2,392.533h59.733
			c4.71,0,8.533,3.814,8.533,8.533c0,4.719-3.823,8.533-8.533,8.533H51.2c-4.71,0-8.533-3.814-8.533-8.533
			C42.667,396.348,46.49,392.533,51.2,392.533z M42.667,366.933c0-4.719,3.823-8.533,8.533-8.533h307.2
			c4.71,0,8.533,3.814,8.533,8.533s-3.823,8.533-8.533,8.533H51.2C46.49,375.467,42.667,371.652,42.667,366.933z M51.2,426.667
			h307.2c4.71,0,8.533,3.814,8.533,8.533s-3.823,8.533-8.533,8.533H51.2c-4.71,0-8.533-3.814-8.533-8.533
			S46.49,426.667,51.2,426.667z M110.933,477.867H51.2c-4.71,0-8.533-3.814-8.533-8.533S46.49,460.8,51.2,460.8h59.733
			c4.71,0,8.533,3.814,8.533,8.533S115.644,477.867,110.933,477.867z M460.8,477.867H153.6c-4.71,0-8.533-3.814-8.533-8.533
			s3.823-8.533,8.533-8.533h307.2c4.71,0,8.533,3.814,8.533,8.533S465.51,477.867,460.8,477.867z M460.8,443.733h-59.733
			c-4.71,0-8.533-3.814-8.533-8.533s3.823-8.533,8.533-8.533H460.8c4.71,0,8.533,3.814,8.533,8.533S465.51,443.733,460.8,443.733z
			 M460.8,409.6H153.6c-4.71,0-8.533-3.814-8.533-8.533c0-4.719,3.823-8.533,8.533-8.533h307.2c4.71,0,8.533,3.814,8.533,8.533
			C469.333,405.786,465.51,409.6,460.8,409.6z M460.8,375.467h-59.733c-4.71,0-8.533-3.814-8.533-8.533s3.823-8.533,8.533-8.533
			H460.8c4.71,0,8.533,3.814,8.533,8.533S465.51,375.467,460.8,375.467z M469.333,324.267c0,4.719-3.823,8.533-8.533,8.533H51.2
			c-4.71,0-8.533-3.814-8.533-8.533V162.133c0-4.719,3.823-8.533,8.533-8.533h409.6c4.71,0,8.533,3.814,8.533,8.533V324.267z"/>
	</g>
</g>
<g>
</g>
<g>
</g>
<g>
</g>
<g>
</g>
<g>
</g>
<g>
</g>
<g>
</g>
<g>
</g>
<g>
</g>
<g>
</g>
<g>
</g>
<g>
</g>
<g>
</g>
<g>
</g>
<g>
</g>
</svg>
